<svg xmlns="http://www.w3.org/2000/svg" viewBox="0 0 100.361 31.435"><defs><style>.a,.b{fill:#fff;}.a{fill-rule:evenodd;}</style></defs><g transform="translate(0.1 -0.142)"><g transform="translate(-0.1 0.142)"><g transform="translate(0)"><g transform="translate(0 13.437)"><path class="a" d="M2.589,66.62v7.966a3.4,3.4,0,0,0,.566,2.184,2.392,2.392,0,0,0,1.88.667,2.421,2.421,0,0,0,1.88-.667A3.208,3.208,0,0,0,7.5,74.586V66.62H10.13v8.269a4.669,4.669,0,0,1-1.334,3.6A5.18,5.18,0,0,1,5.015,79.7a5.18,5.18,0,0,1-3.781-1.213A4.64,4.64,0,0,1-.1,74.889V68.015a1.449,1.449,0,0,1,.364-.97,1.225,1.225,0,0,1,.97-.445H2.589Z" transform="translate(0.1 -66.6)"/><path class="a" d="M60.693,90.009H59.4a1.339,1.339,0,0,1-.93-.323,1.353,1.353,0,0,1-.344-.93V83.7a1.5,1.5,0,0,0-.546-1.294,1.962,1.962,0,0,0-2.386,0,1.549,1.549,0,0,0-.526,1.294v6.288H52.1V84.206c0-1.678.425-2.81,1.294-3.376a5.974,5.974,0,0,1,2.932-.93,5.538,5.538,0,0,1,2.992.849c.91.566,1.375,1.719,1.375,3.437Z" transform="translate(-41.546 -77.211)"/><path class="a" d="M97.7,69.791h1.334a1.243,1.243,0,0,1,1.254,1.254v8.593H97.7Zm0-2.891h1.334a1.243,1.243,0,0,1,1.254,1.254v.768H97.7Z" transform="translate(-77.927 -66.839)"/><path class="a" d="M117.166,91.046h-2.628L111.1,81.2h2.75l1.961,6.935,1.739-6.045a1.17,1.17,0,0,1,1.193-.89h1.921Z" transform="translate(-88.617 -78.248)"/><path class="a" d="M166.576,87.056h1.86a4,4,0,0,1-1.557,2.366,4.715,4.715,0,0,1-2.891.849,4.126,4.126,0,0,1-3.3-1.375,5.581,5.581,0,0,1-1.193-3.821,5.479,5.479,0,0,1,1.152-3.7,4.126,4.126,0,0,1,3.3-1.375,4.418,4.418,0,0,1,3.437,1.334,5.653,5.653,0,0,1,1.193,3.821v.4a.793.793,0,0,1-.04.263h-6.409a2.5,2.5,0,0,0,.546,1.7,1.725,1.725,0,0,0,1.436.586,2.007,2.007,0,0,0,1.072-.263.294.294,0,0,0,.182-.121l.222-.222a.649.649,0,0,1,.263-.3A1.787,1.787,0,0,1,166.576,87.056Zm-4.448-2.891h3.781a2.3,2.3,0,0,0-.526-1.476,1.782,1.782,0,0,0-1.375-.526,1.813,1.813,0,0,0-1.334.526A2.084,2.084,0,0,0,162.128,84.165Z" transform="translate(-127.232 -77.291)"/><path class="a" d="M206.4,91.046V86.275a6.356,6.356,0,0,1,.4-2.406,4.2,4.2,0,0,1,1.193-1.6,4.442,4.442,0,0,1,1.638-.809A7.164,7.164,0,0,1,211.6,81.2h.364v2.628h-.849a2.2,2.2,0,0,0-1.6.526,2.241,2.241,0,0,0-.526,1.638v5.075H206.4Z" transform="translate(-164.649 -78.248)"/><path class="a" d="M233.761,86.914h2.527a1.36,1.36,0,0,0,.546,1.112,2.659,2.659,0,0,0,1.476.364,2.312,2.312,0,0,0,1.152-.263.783.783,0,0,0,.445-.708c0-.445-.526-.768-1.557-.991a8.061,8.061,0,0,1-1.011-.222,5.831,5.831,0,0,1-2.628-1.152,2.3,2.3,0,0,1-.748-1.779,2.954,2.954,0,0,1,1.072-2.325,4.634,4.634,0,0,1,2.891-.849,5.079,5.079,0,0,1,3.073.849,3.341,3.341,0,0,1,1.152,2.406h-1.6a1.163,1.163,0,0,1-1.072-.627l-.3-.3a2.005,2.005,0,0,0-1.213-.323,2.292,2.292,0,0,0-1.112.222.741.741,0,0,0-.344.667c0,.4.647.728,1.921.991a3.817,3.817,0,0,1,.364.121,2.333,2.333,0,0,0,.323.04,6.782,6.782,0,0,1,2.628,1.112,2.344,2.344,0,0,1,.708,1.779,3,3,0,0,1-1.193,2.527,5.641,5.641,0,0,1-3.336.809,4.9,4.9,0,0,1-3.154-.849,3,3,0,0,1-1.072-2.487v-.121Z" transform="translate(-186.43 -77.371)"/><path class="a" d="M284.2,85.035a6.187,6.187,0,0,1-1.435.485l-.849.182a2.171,2.171,0,0,0-.97.485,1.422,1.422,0,0,0-.263.809,1.144,1.144,0,0,0,.344.89,1.4,1.4,0,0,0,.97.3,2.285,2.285,0,0,0,1.638-.586,2.171,2.171,0,0,0,.586-1.638v-.93Zm.586,4.569a4.359,4.359,0,0,1-1.658.485,10.573,10.573,0,0,1-1.516.1,3.957,3.957,0,0,1-2.325-.708,2.778,2.778,0,0,1-.991-2.406,2.629,2.629,0,0,1,.89-2.224,5.237,5.237,0,0,1,2.325-.89c.121,0,.263-.02.445-.04.182-.04.364-.081.586-.121q1.638-.212,1.638-.97a.694.694,0,0,0-.586-.708,3.265,3.265,0,0,0-1.031-.182,2.722,2.722,0,0,0-.93.142,1.036,1.036,0,0,0-.586.546h-2.487a2.835,2.835,0,0,1,1.031-1.88,4.284,4.284,0,0,1,2.851-.849,5.628,5.628,0,0,1,3.114.708,2.4,2.4,0,0,1,1.072,2.082v3.376a4.254,4.254,0,0,1-.546,2.325A3.206,3.206,0,0,1,284.79,89.6Z" transform="translate(-222.012 -77.211)"/><path class="a" d="M321.8,66.9h1.334a1.221,1.221,0,0,1,.89.364,1.1,1.1,0,0,1,.364.849V79.638H321.8Z" transform="translate(-256.717 -66.839)"/><path class="a" d="M342.776,87.056h1.86a4,4,0,0,1-1.557,2.366,4.715,4.715,0,0,1-2.891.849,4.126,4.126,0,0,1-3.3-1.375,5.581,5.581,0,0,1-1.193-3.821,5.479,5.479,0,0,1,1.152-3.7,4.126,4.126,0,0,1,3.3-1.375,4.418,4.418,0,0,1,3.437,1.334,5.653,5.653,0,0,1,1.193,3.821v.4a.793.793,0,0,1-.04.263h-6.409a2.505,2.505,0,0,0,.546,1.7,1.741,1.741,0,0,0,1.456.586,2.007,2.007,0,0,0,1.072-.263.294.294,0,0,0,.182-.121l.222-.222a.649.649,0,0,1,.263-.3A1.757,1.757,0,0,1,342.776,87.056Zm-4.448-2.891h3.781a2.3,2.3,0,0,0-.526-1.476,2.008,2.008,0,0,0-2.709,0A2.28,2.28,0,0,0,338.328,84.165Z" transform="translate(-267.807 -77.291)"/><path class="a" d="M381.5,86.914h2.527a1.323,1.323,0,0,0,.566,1.112,2.659,2.659,0,0,0,1.476.364,2.312,2.312,0,0,0,1.152-.263.783.783,0,0,0,.445-.708c0-.445-.526-.768-1.557-.991a6.88,6.88,0,0,1-.991-.222,5.831,5.831,0,0,1-2.628-1.152,2.3,2.3,0,0,1-.748-1.779,2.954,2.954,0,0,1,1.072-2.325,4.634,4.634,0,0,1,2.891-.849,5.079,5.079,0,0,1,3.073.849,3.341,3.341,0,0,1,1.152,2.406h-1.6a1.163,1.163,0,0,1-1.072-.627l-.3-.3a2.005,2.005,0,0,0-1.213-.323,2.292,2.292,0,0,0-1.112.222.726.726,0,0,0-.323.667c0,.4.647.728,1.921.991a3.818,3.818,0,0,1,.364.121,2.25,2.25,0,0,0,.344.04,6.783,6.783,0,0,1,2.628,1.112,2.344,2.344,0,0,1,.708,1.779,3,3,0,0,1-1.193,2.527,5.641,5.641,0,0,1-3.336.809,4.9,4.9,0,0,1-3.154-.849,3,3,0,0,1-1.072-2.487v-.121Z" transform="translate(-304.347 -77.371)"/></g><path class="b" d="M343.278,17.137V17.2a.182.182,0,0,0,.02.1,5.765,5.765,0,0,0,.182.89.55.55,0,0,0,.1.222h0c.04-.04-.02-.384-.02-.425a4.405,4.405,0,0,1,0-1.173v-.02a4.173,4.173,0,0,1,1.233-1.981,9.73,9.73,0,0,1,4.67-1.638c.162-.02.344-.04.526-.061h.04a19.665,19.665,0,0,1,3.68.142,18.373,18.373,0,0,1,5.762,1.961,18.914,18.914,0,0,1,1.739,1.051,20.5,20.5,0,0,1,2.75,2.467l.02.02c-.142.627-.323,1.233-.505,1.86-1.415,4.165-3.579,7.177-5.722,8.633a8.22,8.22,0,0,1-2.123.95,4.86,4.86,0,0,1-.748.061,3.4,3.4,0,0,1-.768-.02c-.647-.061-.566.607-.1.728.162.04.344.1.485.142.445.121.89.2,1.355.283a15.687,15.687,0,0,0,2.77.182,14.8,14.8,0,0,0,8.916-3.316c.121,1.254.384,1.617.95.465a4.657,4.657,0,0,0,.384-1.658,15.293,15.293,0,0,0,3.134-4.67c.445,1.516.667,2.527,1.436-.4A4.5,4.5,0,0,0,372.978,19a14.917,14.917,0,0,0,.182-2.871c-.02-.364-.04-.728-.081-1.092.849,1.112,1.921,2.062.162-3.134a9.053,9.053,0,0,0-3.154-4.387c-.283-.364-.586-.708-.89-1.051a6.821,6.821,0,0,0-2.446-3.68c-2.143-1.355-2.184-.647-1.557.607a17,17,0,0,0-1.961-.869A4.969,4.969,0,0,0,360.6.3c-1.88-.546-1.4.465-.586,1.476a16.231,16.231,0,0,0-2.224-.1A14.941,14.941,0,0,0,345.38,9.029a15.074,15.074,0,0,0-1.981,5.378A11.656,11.656,0,0,0,343.278,17.137ZM362.2,4.521a26.92,26.92,0,0,0-5.115-.323c-3.518.384-7.258,1.254-10.453,3.922a13.723,13.723,0,0,1,4.327-3.579,14.326,14.326,0,0,1,10.675-.89c.081.1.182.222.263.344A2.727,2.727,0,0,1,362.2,4.521Zm2.224,6.167a19.112,19.112,0,0,0-11.383-2.163,18.018,18.018,0,0,0-2.871.485,9.513,9.513,0,0,0-5.6,3.3c-.1.121-.2.263-.283.364a7.831,7.831,0,0,1,2.082-3.5,13.212,13.212,0,0,1,3.963-2.366,20.154,20.154,0,0,1,6.753-1.051c.445.02.91.04,1.375.081a22.665,22.665,0,0,1,3.579.627c.485.142.97.3,1.436.485A16.115,16.115,0,0,1,364.426,10.687Zm4.428,2.992a13.661,13.661,0,0,0-2.79-2.123h-.02a17.921,17.921,0,0,0-.526-3.68,17.9,17.9,0,0,1,2.568,1.617c.162.526.3,1.051.425,1.617A16.42,16.42,0,0,1,368.854,13.68Zm1.4-1.8c-.02-.162-.02-.323-.04-.505a.442.442,0,0,1,.081.1,14.451,14.451,0,0,1,1.132,4.974,14.835,14.835,0,0,0-1.031-1.213m-1.9,7.683a19.693,19.693,0,0,0,1.254-3.538c.121-.485.243-.95.323-1.435a11.914,11.914,0,0,1,1.031,2.1,16.278,16.278,0,0,1-2.224,4.994l-.02.04A16.629,16.629,0,0,0,368.49,22.919Zm-3.013-4.852c.121-.546.222-1.072.3-1.6.04-.222.061-.445.1-.667a21.924,21.924,0,0,0,.182-2.224,15.768,15.768,0,0,1,2.77,2.669,20.625,20.625,0,0,1-.971,5.034A16.66,16.66,0,0,0,365.477,18.067Zm-.748,2.689c.1-.263.182-.546.263-.809a13.106,13.106,0,0,1,1.88,3.66,16.9,16.9,0,0,1-2.81,4.023,12.965,12.965,0,0,1-2.952,2.184,7.29,7.29,0,0,1-2.446.687c-.4.02-.809.04-1.213.04a11.163,11.163,0,0,0,2.81-2.2A20.256,20.256,0,0,0,364.729,20.756Zm-21.108-5.014c0-.1.02-.2.02-.323a6.889,6.889,0,0,1,.505-1.577,7.872,7.872,0,0,1,4.185-3.4,19.584,19.584,0,0,1,10.8-.2,18.565,18.565,0,0,1,5.459,2.3,22.862,22.862,0,0,1-.283,4.347,18.005,18.005,0,0,0-14.234-4.751c-2.79.283-4.509,1.092-5.5,2.184A2.9,2.9,0,0,0,343.621,15.742Z" transform="translate(-273.828 -0.142)"/></g></g></g></svg>