<svg id="Layer_1" data-name="Layer 1" xmlns="http://www.w3.org/2000/svg" viewBox="0 0 153.11 155.51"><title>herradura-fff</title><path d="M27.32,115.73c0,.09,0,.18,0,.28s0,.34,0,.51a22,22,0,0,0,.91,4.43A3.11,3.11,0,0,0,28.8,122h.07a6.46,6.46,0,0,0-.14-2.06,22.53,22.53,0,0,1,.05-5.83v0a20.06,20.06,0,0,1,6.11-9.76C40.31,99.93,48.5,97.62,58,96.19c.84-.13,1.69-.24,2.56-.33h.15a101.88,101.88,0,0,1,18.2.67,93.91,93.91,0,0,1,28.47,9.66,80,80,0,0,1,8.57,5.19,103.33,103.33,0,0,1,13.56,12.16l0,.06c-.71,3.07-1.55,6.15-2.52,9.22-7,20.56-17.7,35.46-28.25,42.72a40,40,0,0,1-10.48,4.67,17.76,17.76,0,0,1-3.74.31,22.32,22.32,0,0,1-3.77-.11c-3.22-.35-2.84,3-.53,3.61.84.23,1.66.48,2.38.7,2.2.57,4.43,1.05,6.67,1.41a75,75,0,0,0,13.72.87,73.4,73.4,0,0,0,44.13-16.4c.63,6.21,1.94,8,4.69,2.28a24.36,24.36,0,0,0,1.93-8.21,73.82,73.82,0,0,0,15.52-23.15c2.24,7.52,3.26,12.47,7.13-2,1.19-4.46.13-9.57-2.27-14.81a74.59,74.59,0,0,0,.92-14.17c-.06-1.81-.18-3.59-.36-5.37,4.23,5.55,9.5,10.2.78-15.51A45.18,45.18,0,0,0,160,67.93c-1.38-1.8-2.85-3.54-4.39-5.21-2.74-8-6.63-14.75-12-18.18-10.58-6.67-10.78-3.18-7.72,3a74.38,74.38,0,0,0-9.71-4.26c-3.4-5.17-7.68-9.48-13-11-9.32-2.66-6.85,2.32-2.91,7.28a74.84,74.84,0,0,0-11.05-.48A73.71,73.71,0,0,0,37.77,75.47a76.38,76.38,0,0,0-9.87,26.7A56.54,56.54,0,0,0,27.32,115.73ZM121,53.34c-10.54-1.29-19.91-2.21-25.26-1.63C78.33,53.58,59.85,57.9,44,71.15A69.42,69.42,0,0,1,65.42,53.42,70.91,70.91,0,0,1,118.22,49c.42.53.85,1.08,1.32,1.72A23.88,23.88,0,0,1,121,53.34ZM132,83.8c-10.58-5.63-28-13.27-56.3-10.72a87.47,87.47,0,0,0-14.17,2.39C48.67,78.7,38.69,84.57,33.79,91.8c-.52.65-1,1.26-1.38,1.82A37.86,37.86,0,0,1,42.75,76.34,66.12,66.12,0,0,1,62.36,64.65c9.52-3.41,20.81-5.18,33.35-5.24q3.3.11,6.81.42A105.49,105.49,0,0,1,120.23,63c2.41.71,4.78,1.52,7.11,2.4A85,85,0,0,1,132,83.8Zm21.83,14.83c-5.7-5.27-11-9.17-13.77-10.5l-.07,0a89.48,89.48,0,0,0-2.56-18.24,89.84,89.84,0,0,1,12.71,8c.82,2.55,1.54,5.23,2.13,8A104.9,104.9,0,0,1,153.81,98.63Zm6.94-8.87c-.06-.81-.14-1.63-.22-2.45l.42.46a70.18,70.18,0,0,1,5.55,24.63c-1.6-2.07-3.31-4.1-5.07-6m-9.43,38a93.37,93.37,0,0,0,6.16-17.53q.94-3.54,1.63-7.07a63.49,63.49,0,0,1,5.12,10.36c-2.21,10.07-8.35,20.8-11,24.66l-.11.15A69.38,69.38,0,0,0,152,144.33Zm-14.84-24c.59-2.7,1.09-5.34,1.48-7.93.17-1.1.33-2.2.46-3.28.49-3.84.78-7.53.91-11a84.62,84.62,0,0,1,13.74,13.17,100.23,100.23,0,0,1-4.84,24.85A83.1,83.1,0,0,0,137.16,120.32Zm-3.73,13.29c.46-1.34.89-2.68,1.29-4A62.58,62.58,0,0,1,144,147.68a82,82,0,0,1-13.94,19.86,64.81,64.81,0,0,1-14.65,10.8,35.07,35.07,0,0,1-12.1,3.39c-2,.14-4,.21-6,.19A55.21,55.21,0,0,0,111.18,171C119.52,162.66,127.72,150.31,133.43,133.61ZM29,108.83c0-.52.09-1,.14-1.57a31.12,31.12,0,0,1,2.49-7.8c2.87-5,8.83-12.25,20.67-16.81,13.65-4.89,32.94-5.92,53.39-1a92,92,0,0,1,27,11.41,115.22,115.22,0,0,1-1.36,21.54C116.43,101,92.94,87.86,60.92,91c-13.83,1.38-22.3,5.44-27.22,10.81A14.42,14.42,0,0,0,29,108.83Z" transform="translate(-27.15 -31.52)" style="fill:#fff"/></svg>