<?xml version="1.0" encoding="utf-8"?>
<!-- Svg Vector Icons : http://www.onlinewebfonts.com/icon -->
<!DOCTYPE svg PUBLIC "-//W3C//DTD SVG 1.1//EN" "http://www.w3.org/Graphics/SVG/1.1/DTD/svg11.dtd">
<svg version="1.1" xmlns="http://www.w3.org/2000/svg" xmlns:xlink="http://www.w3.org/1999/xlink" x="0px" y="0px" viewBox="0 0 1000 1000" enable-background="new 0 0 1000 1000" xml:space="preserve">
<metadata> Svg Vector Icons : http://www.onlinewebfonts.com/icon </metadata>
<g><path fill="#14bb5d" d="M629.6,472.5c49-38.6,80.7-98.4,80.7-165.6c0-116.2-94.2-210.6-210.1-210.6c-115.9,0-210.1,94.5-210.1,210.6c0,67.2,31.6,127,80.7,165.6c-129.2,51.7-220.7,178.2-220.7,325.9v70.2c0,19.4,15.7,35.1,35,35.1h630.3c19.3,0,35-15.7,35-35.1v-70.2C850.3,650.7,758.8,524.3,629.6,472.5L629.6,472.5L629.6,472.5L629.6,472.5z M348.2,306.6c0-84,68.1-152.4,152-152.4c83.8,0,152,68.3,152,152.4c0,84-68.2,152.4-152,152.4C416.4,459,348.2,390.7,348.2,306.6L348.2,306.6L348.2,306.6z M797.7,846.1h-595v-37.3c0-164.5,133.5-298.3,297.5-298.3c164,0,297.4,133.8,297.4,298.3V846.1L797.7,846.1z M228.9,505.1l6.8-1.6c14.7-4.9,25.1-17.9,25.1-33c0-14.7-9.8-27.2-23.6-32.5c-37.5-17.1-61.7-54.6-61.7-95.9c0-46.8,40.3-86.2,82.5-99.9c7.4-22.8,18.5-44,32.8-62.7c2.5-4.1,5.1-8.2,7.8-12.1c-2.8-0.1-5.5-0.8-8.4-0.8c-96.5,0-175.1,78.7-175.1,175.5c0,44.4,16.9,86.1,45.6,117.8C69.4,507.2,10,601.9,10,709v54.3c0,19.4,15.7,35.1,35,35.1h62.7c0-24.1,2.5-39.5,7.1-62.2H70.5V709C70.5,612,135.5,528.7,228.9,505.1L228.9,505.1L228.9,505.1L228.9,505.1z M839.5,459.9c28.6-31.7,45.5-73.3,45.5-117.8c0-96.8-78.5-175.6-175.1-175.6c-2.9,0-5.6,0.7-8.4,0.8c2.7,4,5.3,8,7.8,12.1c14.2,18.7,25.4,39.8,32.7,62.7c42.2,13.7,88.3,53.1,88.3,99.9c0,41.3-24.2,78.8-61.7,95.9c-13.8,5.3-23.6,17.8-23.6,32.5c0,15.2,10.5,28.1,25.1,33l6.8,1.6c93.4,23.6,158.4,106.9,158.4,203.9v27.3h-50.2c4.6,22.7,7,38.1,7,62.2H955c19.4,0,35-15.7,35-35.1V709C990.1,601.9,930.6,507.2,839.5,459.9L839.5,459.9L839.5,459.9L839.5,459.9z"/></g>
</svg>